<?xml version="1.0" standalone="no"?>
<!DOCTYPE svg PUBLIC "-//W3C//DTD SVG 20010904//EN"
 "http://www.w3.org/TR/2001/REC-SVG-20010904/DTD/svg10.dtd">
<svg version="1.0" xmlns="http://www.w3.org/2000/svg"
 width="538.000000pt" height="538.000000pt" viewBox="0 0 538.000000 538.000000"
 preserveAspectRatio="xMidYMid meet">
<metadata>
Created by potrace 1.14, written by Peter Selinger 2001-2017
</metadata>
<g transform="translate(0.000000,538.000000) scale(0.100000,-0.100000)"
fill="#000000" stroke="none">
<path d="M2115 4355 c-156 -24 -380 -95 -431 -136 -21 -16 -53 -37 -71 -46
-18 -8 -46 -30 -63 -49 -16 -19 -34 -34 -40 -34 -5 0 -10 -5 -10 -10 0 -6 -14
-24 -31 -41 -17 -17 -29 -32 -27 -35 3 -2 16 7 30 20 29 29 103 81 173 121 64
37 55 26 -21 -24 -135 -89 -262 -219 -318 -328 -40 -78 -87 -210 -89 -251 -2
-41 1 -45 35 -65 l37 -22 24 23 c13 13 28 22 33 21 16 -4 69 14 79 26 15 18
95 27 95 10 0 -7 16 -16 36 -20 28 -5 39 -2 50 12 13 16 13 16 5 -7 -5 -15 -4
-36 1 -53 10 -26 11 -27 24 -10 7 10 14 13 14 6 0 -7 -12 -23 -27 -37 -25 -23
-25 -25 -5 -19 16 4 35 32 68 101 56 117 120 184 244 258 110 66 177 85 320
92 186 8 323 -29 442 -118 188 -142 288 -366 288 -646 l0 -114 -47 1 c-48 0
-109 17 -70 18 11 1 15 6 11 12 -3 6 0 15 7 20 9 5 -18 9 -71 10 -47 1 -105 3
-130 5 -25 2 -180 5 -345 6 -254 3 -314 0 -392 -15 -128 -24 -233 -61 -301
-103 -127 -81 -178 -119 -207 -153 -16 -19 -45 -50 -62 -69 -18 -18 -33 -40
-33 -48 0 -10 -6 -14 -14 -11 -8 3 -17 -1 -20 -9 -3 -9 -1 -12 4 -9 6 3 10 0
10 -7 0 -7 10 1 22 17 27 38 137 145 148 145 5 0 -18 -25 -50 -56 -33 -31 -78
-85 -101 -120 -44 -68 -55 -78 -43 -41 3 12 3 19 -1 15 -5 -5 -9 -20 -11 -35
-1 -16 -16 -64 -33 -107 -17 -44 -36 -105 -43 -135 -18 -79 -17 -420 1 -491
20 -80 84 -229 126 -297 81 -126 202 -240 241 -227 14 4 16 3 5 -4 -20 -14 34
-51 161 -112 115 -54 118 -55 118 -40 0 6 -6 10 -13 10 -16 0 -105 43 -132 64
-16 12 -17 15 -5 16 9 0 21 -5 28 -12 6 -6 20 -13 29 -14 115 -16 180 -28 208
-40 19 -8 51 -14 72 -15 35 0 36 -1 14 -10 -23 -9 -23 -10 -5 -23 10 -8 24
-11 32 -8 11 4 11 6 0 14 -9 7 -7 8 7 3 11 -3 59 -9 106 -12 91 -6 153 2 130
17 -15 9 31 18 110 22 35 2 45 6 41 17 -4 12 5 13 51 8 45 -4 61 -2 79 13 15
11 35 17 53 14 25 -4 27 -3 10 5 -17 8 -15 10 13 10 18 1 41 6 52 13 15 10 23
9 39 -6 16 -15 21 -16 21 -5 0 8 9 20 19 26 16 10 20 9 24 -7 3 -14 1 -17 -11
-13 -9 4 -13 2 -9 -4 4 -7 -8 -16 -30 -24 -21 -7 -33 -14 -27 -16 42 -14 297
167 353 251 42 64 59 58 144 -51 38 -48 111 -113 182 -161 107 -73 165 -96
180 -72 4 7 12 7 25 0 20 -11 50 -4 50 11 0 5 7 9 15 9 8 0 15 -4 15 -10 0 -5
12 -17 28 -25 15 -9 18 -13 7 -10 -11 3 -16 2 -11 -2 4 -4 46 -9 93 -10 47 -1
90 -6 96 -12 6 -6 24 -11 39 -11 33 0 37 -17 6 -23 -13 -2 -1 -5 25 -6 107 -3
266 48 314 101 12 14 19 44 24 101 5 75 6 77 9 27 l2 -55 10 53 c8 43 7 60 -6
85 -15 31 -16 31 -17 7 0 -14 -7 2 -14 35 -8 33 -11 77 -8 98 11 74 -47 95
-174 62 -31 -8 -91 -15 -133 -15 -153 0 -267 33 -340 98 -39 35 -52 40 -43 15
4 -11 3 -14 -5 -9 -22 13 -12 -4 18 -34 17 -17 27 -30 22 -30 -22 0 -121 113
-154 176 -47 88 -102 300 -116 439 -6 58 -8 300 -5 580 6 534 3 584 -52 775
-70 244 -176 394 -378 533 -74 51 -176 107 -195 107 -6 0 -13 4 -16 8 -2 4 11
8 30 8 21 0 29 -3 21 -8 -8 -6 -3 -8 12 -6 14 2 26 8 28 14 6 17 -108 64 -164
66 -28 2 -49 6 -47 9 5 9 -133 47 -212 59 -91 13 -210 11 -309 -5z m203 -42
c-16 -2 -40 -2 -55 0 -16 2 -3 4 27 4 30 0 43 -2 28 -4z m115 -10 c-7 -2 -19
-2 -25 0 -7 3 -2 5 12 5 14 0 19 -2 13 -5z m142 -13 c32 -6 64 -15 70 -21 11
-11 -62 -3 -103 12 -13 5 -37 9 -53 9 -16 0 -29 4 -29 10 0 5 12 7 28 5 15 -3
54 -9 87 -15z m-98 -1296 c-3 -3 -12 -4 -19 -1 -8 3 -5 6 6 6 11 1 17 -2 13
-5z m106 -1 c-13 -2 -35 -2 -50 0 -16 2 -5 4 22 4 28 0 40 -2 28 -4z m-898
-81 c-22 -19 -88 -55 -81 -44 4 7 24 21 44 32 41 21 51 24 37 12z m957 -359
c195 -4 304 -10 314 -17 13 -10 17 -56 24 -263 9 -232 8 -257 -9 -311 -35
-114 -174 -282 -287 -348 -25 -15 -47 -24 -50 -22 -2 3 17 17 43 31 52 28 163
128 163 147 0 13 -2 11 -80 -41 -177 -118 -299 -158 -515 -169 -77 -4 -133 -7
-125 -8 13 -2 13 -3 0 -12 -22 -14 -10 -19 58 -26 34 -4 62 -11 62 -16 0 -12
-97 -1 -162 17 -26 8 -85 33 -130 57 -217 112 -342 346 -308 575 13 82 22 105
70 177 66 97 197 184 325 216 58 14 237 30 279 24 16 -2 164 -7 328 -11z
m1406 -1040 c-32 -2 -84 -2 -115 0 -32 2 -6 3 57 3 63 0 89 -1 58 -3z m-1088
-185 c0 -5 -7 -3 -15 6 -8 8 -15 18 -15 22 0 3 7 1 15 -6 8 -7 15 -17 15 -22z
m-59 -31 c-10 -9 -11 -8 -5 6 3 10 9 15 12 12 3 -3 0 -11 -7 -18z m54 3 c-3
-5 -12 -10 -18 -10 -7 0 -6 4 3 10 19 12 23 12 15 0z m-65 -41 c0 -14 -16 -11
-29 5 -10 12 -8 13 8 9 12 -3 21 -9 21 -14z m-1220 -3 c0 -11 -19 -15 -25 -6
-3 5 1 10 9 10 9 0 16 -2 16 -4z"/>
<path d="M1940 1596 c0 -2 7 -7 16 -10 8 -3 12 -2 9 4 -6 10 -25 14 -25 6z"/>
<path d="M2030 1560 c0 -5 7 -10 15 -10 8 0 15 5 15 10 0 6 -7 10 -15 10 -8 0
-15 -4 -15 -10z"/>
<path d="M3970 4314 c-25 -9 -47 -19 -50 -23 -3 -3 -18 -14 -35 -23 -16 -9
-37 -27 -45 -39 -10 -15 -11 -20 -2 -15 24 14 12 -6 -26 -44 -62 -61 -84 -180
-53 -288 17 -62 91 -134 164 -161 103 -38 201 -24 301 42 40 26 55 46 87 111
44 89 50 147 23 211 -8 21 -13 44 -10 52 7 18 -10 53 -26 53 -6 0 -4 -8 5 -18
31 -34 17 -33 -18 1 -19 19 -35 40 -35 48 1 8 6 4 14 -9 11 -20 14 -21 24 -9
10 12 6 21 -25 47 -76 68 -205 95 -293 64z m57 -40 c-3 -3 -12 -4 -19 -1 -8 3
-5 6 6 6 11 1 17 -2 13 -5z"/>
<path d="M3412 3320 c0 -19 2 -27 5 -17 2 9 2 25 0 35 -3 9 -5 1 -5 -18z"/>
<path d="M3900 3023 c-42 -7 -75 -23 -88 -43 -12 -19 -3 -28 12 -13 4 4 25 6
48 4 24 -2 44 2 48 9 6 9 16 10 36 3 24 -8 17 -11 -60 -22 -48 -7 -93 -19
-101 -27 -7 -8 -17 -39 -21 -70 -8 -64 0 -270 11 -297 20 -48 127 -70 325 -65
129 2 161 6 183 21 l28 18 -7 167 c-4 92 -12 183 -19 204 -10 30 -10 35 1 31
8 -3 14 2 14 11 0 9 -4 16 -10 16 -5 0 -10 6 -10 14 0 7 -11 21 -24 29 -20 13
-54 16 -183 15 -87 -1 -169 -3 -183 -5z m127 -49 c-3 -3 -12 -4 -19 -1 -8 3
-5 6 6 6 11 1 17 -2 13 -5z m237 -12 c3 -5 -8 -6 -25 -4 -16 2 -29 6 -29 8 0
8 49 4 54 -4z"/>
<path d="M1300 2610 c0 -5 5 -10 10 -10 6 0 10 5 10 10 0 6 -4 10 -10 10 -5 0
-10 -4 -10 -10z"/>
<path d="M3421 2264 c0 -11 3 -14 6 -6 3 7 2 16 -1 19 -3 4 -6 -2 -5 -13z"/>
<path d="M3421 2204 c0 -11 3 -14 6 -6 3 7 2 16 -1 19 -3 4 -6 -2 -5 -13z"/>
<path d="M2740 1209 c0 -5 5 -7 10 -4 6 3 10 8 10 11 0 2 -4 4 -10 4 -5 0 -10
-5 -10 -11z"/>
<path d="M1790 1186 c0 -2 11 -6 25 -8 13 -3 22 -1 19 3 -5 9 -44 13 -44 5z"/>
<path d="M2640 1135 c-31 -12 -32 -14 -10 -14 14 0 34 6 44 14 24 18 13 18
-34 0z"/>
<path d="M3626 1131 c11 -11 99 -41 120 -41 30 0 3 18 -36 25 -22 4 -42 11
-46 16 -3 5 -15 9 -27 9 -13 0 -17 -4 -11 -9z"/>
<path d="M3785 1090 c3 -5 14 -10 23 -10 15 0 15 2 2 10 -20 13 -33 13 -25 0z"/>
<path d="M2138 1073 c7 -3 16 -2 19 1 4 3 -2 6 -13 5 -11 0 -14 -3 -6 -6z"/>
<path d="M2248 1063 c23 -2 61 -2 85 0 23 2 4 4 -43 4 -47 0 -66 -2 -42 -4z"/>
</g>
</svg>
